<svg width="74" height="74" viewBox="0 0 74 74" fill="none" xmlns="http://www.w3.org/2000/svg">
<g filter="url(#filter0_d_6178_10290)">
<path d="M60 37C60 49.7025 49.7025 60 37 60C24.2975 60 14 49.7025 14 37C14 24.2975 24.2975 14 37 14C49.7025 14 60 24.2975 60 37Z" fill="#EA580C"/>
<path d="M37 15.5C48.8741 15.5 58.5 25.1259 58.5 37C58.5 48.8741 48.8741 58.5 37 58.5C25.1259 58.5 15.5 48.8741 15.5 37C15.5 25.1259 25.1259 15.5 37 15.5Z" stroke="white" stroke-width="3"/>
</g>
<path d="M34 47V37H40V47M28 34L37 27L46 34V45C46 45.5304 45.7893 46.0391 45.4142 46.4142C45.0391 46.7893 44.5304 47 44 47H30C29.4696 47 28.9609 46.7893 28.5858 46.4142C28.2107 46.0391 28 45.5304 28 45V34Z" stroke="white" stroke-linecap="round" stroke-linejoin="round"/>
<defs>
<filter id="filter0_d_6178_10290" x="0" y="0" width="74" height="74" filterUnits="userSpaceOnUse" color-interpolation-filters="sRGB">
<feFlood flood-opacity="0" result="BackgroundImageFix"/>
<feColorMatrix in="SourceAlpha" type="matrix" values="0 0 0 0 0 0 0 0 0 0 0 0 0 0 0 0 0 0 127 0" result="hardAlpha"/>
<feOffset/>
<feGaussianBlur stdDeviation="7"/>
<feComposite in2="hardAlpha" operator="out"/>
<feColorMatrix type="matrix" values="0 0 0 0 0.106579 0 0 0 0 0.134211 0 0 0 0 0.193421 0 0 0 0.3 0"/>
<feBlend mode="normal" in2="BackgroundImageFix" result="effect1_dropShadow_6178_10290"/>
<feBlend mode="normal" in="SourceGraphic" in2="effect1_dropShadow_6178_10290" result="shape"/>
</filter>
</defs>
</svg>
